HIERARCHY
ROOT joint_Root
{
	OFFSET 0.0 0.0 0.0
	CHANNELS 6 Xposition Yposition Zposition Zrotation Xrotation Yrotation 
	JOINT Hips
	{
		OFFSET -0.726466 93.3139 -2.00062
		CHANNELS 6 Xposition Yposition Zposition Zrotation Xrotation Yrotation 
		JOINT Spine
		{
			OFFSET 15.7357 0.0 0.0
			CHANNELS 6 Xposition Yposition Zposition Zrotation Xrotation Yrotation 
			JOINT Chest
			{
				OFFSET 8.98455 -0.406207 0.0
				CHANNELS 6 Xposition Yposition Zposition Zrotation Xrotation Yrotation 
				JOINT Neck
				{
					OFFSET 16.3773 0.0 0.0
					CHANNELS 6 Xposition Yposition Zposition Zrotation Xrotation Yrotation 
					JOINT Head
					{
						OFFSET 6.45672 0.0 0.0
						CHANNELS 6 Xposition Yposition Zposition Zrotation Xrotation Yrotation 
						End Site
						{
							OFFSET 0.0 0.0 0.0
						}
					}
				}
				JOINT Shoulder_L
				{
					OFFSET 12.9942 -0.242716 4.98039
					CHANNELS 6 Xposition Yposition Zposition Zrotation Xrotation Yrotation 
					JOINT UpperArm_L
					{
						OFFSET 5.34809 0.0 0.0
						CHANNELS 6 Xposition Yposition Zposition Zrotation Xrotation Yrotation 
						JOINT LowerArm_L
						{
							OFFSET 24.3286 1.87007e-05 0.0
							CHANNELS 6 Xposition Yposition Zposition Zrotation Xrotation Yrotation 
							JOINT Hand_L
							{
								OFFSET 22.2916 0.0 0.0
								CHANNELS 6 Xposition Yposition Zposition Zrotation Xrotation Yrotation 
								End Site
								{
									OFFSET 0.0 0.0 0.0
								}
							}
						}
					}
				}
				JOINT Shoulder_R
				{
					OFFSET 12.9945 -0.242716 -4.98039
					CHANNELS 6 Xposition Yposition Zposition Zrotation Xrotation Yrotation 
					JOINT UpperArm_R
					{
						OFFSET -5.34813 0.0 0.0
						CHANNELS 6 Xposition Yposition Zposition Zrotation Xrotation Yrotation 
						JOINT LowerArm_R
						{
							OFFSET -24.3289 0.000322201 0.0
							CHANNELS 6 Xposition Yposition Zposition Zrotation Xrotation Yrotation 
							JOINT Hand_R
							{
								OFFSET -22.2915 -0.000108084 0.0
								CHANNELS 6 Xposition Yposition Zposition Zrotation Xrotation Yrotation 
								End Site
								{
									OFFSET 0.0 0.0 0.0
								}
							}
						}
					}
				}
			}
		}
		JOINT UpperLeg_L
		{
			OFFSET -2.19248 -6.46944 0.0
			CHANNELS 6 Xposition Yposition Zposition Zrotation Xrotation Yrotation 
			JOINT LowerLeg_L
			{
				OFFSET 39.0811 0.0 -1.23785e-05
				CHANNELS 6 Xposition Yposition Zposition Zrotation Xrotation Yrotation 
				JOINT Foot_L
				{
					OFFSET 40.9854 0.0 -1.26872e-05
					CHANNELS 6 Xposition Yposition Zposition Zrotation Xrotation Yrotation 
					JOINT Toes_L
					{
						OFFSET 11.7543 0.0 0.0
						CHANNELS 6 Xposition Yposition Zposition Zrotation Xrotation Yrotation 
						End Site
						{
							OFFSET 0.0 0.0 0.0
						}
					}
				}
			}
		}
		JOINT UpperLeg_R
		{
			OFFSET -2.19251 6.46944 0.0
			CHANNELS 6 Xposition Yposition Zposition Zrotation Xrotation Yrotation 
			JOINT LowerLeg_R
			{
				OFFSET -39.0811 -0.00228153 -0.0401928
				CHANNELS 6 Xposition Yposition Zposition Zrotation Xrotation Yrotation 
				JOINT Foot_R
				{
					OFFSET -40.9854 0.0 0.0
					CHANNELS 6 Xposition Yposition Zposition Zrotation Xrotation Yrotation 
					JOINT Toes_R
					{
						OFFSET -11.7543 0.0 0.0
						CHANNELS 6 Xposition Yposition Zposition Zrotation Xrotation Yrotation 
						End Site
						{
							OFFSET 0.0 0.0 0.0
						}
					}
				}
			}
		}
	}
}
MOTION
Frames:	6
Frame Time:	0.0333333
0.000000 0.000000 0.000000 0.000000 0.000000 -0.000000 119.929000 85.539400 173.930000 -82.647900 34.348000 -175.375000 15.735700 0.000005 -0.000001 77.076800 80.568900 -74.857900 8.984550 -0.406207 -0.000000 10.723400 -4.131420 4.824690 16.377300 -0.000001 -0.000001 11.277000 8.243040 -2.876230 6.456720 -0.000001 -0.000000 5.386230 18.467500 -4.316800 12.994200 -0.242716 4.980390 -88.103600 -4.836710 -68.560500 5.348090 -0.000007 -0.000001 -62.642800 31.595000 -14.928000 24.328600 0.000019 0.000005 8.290570 9.685370 -40.897200 22.291600 -0.000001 0.000005 2.386960 5.617750 -12.466600 12.994500 -0.242716 -4.980390 88.409800 3.394440 -64.880000 -5.348130 -0.000001 -0.000004 -55.920900 31.890300 -9.199010 -24.328900 0.000322 -0.000009 4.046300 6.510600 -31.965800 -22.291500 -0.000108 -0.000004 -2.337890 5.533900 -7.967650 -2.192480 -6.469440 -0.000000 -164.056000 4.389780 -1.033410 39.081100 -0.000007 -0.000012 0.379643 -0.169006 66.002400 40.985400 -0.000006 -0.000013 3.369340 7.070760 -51.133000 11.754300 -0.000000 0.000003 -0.006587 -0.076084 -19.673800 -2.192510 6.469440 -0.000001 175.910000 20.574400 159.036000 -39.081100 -0.002282 -0.040193 -0.027837 0.030070 45.963300 -40.985400 0.000008 0.000006 -4.195000 1.095540 -63.560400 -11.754300 -0.000006 -0.000006 -0.009577 -0.100449 -20.665200
0.000000 0.000000 0.000000 0.000000 0.000000 -0.000000 122.001000 86.283800 172.386000 -83.969100 32.558700 -174.782000 15.735700 0.000005 -0.000001 81.891000 80.593700 -79.800400 8.984550 -0.406207 -0.000000 10.917400 -2.576740 4.426000 16.377300 -0.000001 -0.000001 10.979200 7.786990 -2.382380 6.456720 -0.000001 -0.000000 5.070090 16.292600 -4.608730 12.994200 -0.242716 4.980390 -88.226000 -4.403670 -68.031600 5.348090 -0.000007 -0.000001 -63.686500 32.367900 -12.670000 24.328600 0.000019 0.000005 8.593700 10.920600 -38.579500 22.291600 -0.000001 0.000005 1.960340 5.613640 -12.193900 12.994500 -0.242716 -4.980390 88.567200 3.207080 -65.911600 -5.348130 -0.000001 -0.000004 -53.653900 32.039200 -13.708500 -24.328900 0.000322 -0.000009 3.911370 6.185260 -32.405900 -22.291500 -0.000108 -0.000004 -1.547890 5.537100 -8.111330 -2.192480 -6.469440 -0.000000 -165.207000 0.234903 -6.700130 39.081100 -0.000007 -0.000012 0.395652 -0.129363 71.893700 40.985400 -0.000006 -0.000013 8.687130 -4.170640 -55.459100 11.754300 -0.000000 0.000003 -0.008472 -0.091849 -20.317500 -2.192510 6.469440 -0.000001 174.845000 20.766600 161.532000 -39.081100 -0.002282 -0.040193 0.017838 -0.014448 45.247900 -40.985400 0.000008 0.000006 -3.716690 -0.405547 -65.520100 -11.754300 -0.000006 -0.000006 -0.008203 -0.089677 -20.225000
0.000000 0.000000 0.000000 0.000000 0.000000 -0.000000 123.680000 87.221600 170.843000 -85.391100 31.104100 -174.376000 15.735700 0.000005 -0.000001 86.787800 80.670900 -84.917600 8.984550 -0.406207 -0.000000 10.883000 -0.987014 3.832460 16.377300 -0.000001 -0.000001 10.976600 7.448420 -2.060290 6.456720 -0.000001 -0.000000 5.050440 13.981000 -4.862510 12.994200 -0.242716 4.980390 -88.349600 -3.936770 -67.232800 5.348090 -0.000007 -0.000001 -64.825600 32.470200 -9.861520 24.328600 0.000019 0.000005 8.549500 11.355600 -37.362000 22.291600 -0.000001 0.000005 1.947720 5.608290 -11.850600 12.994500 -0.242716 -4.980390 88.801000 2.832740 -67.047200 -5.348130 -0.000001 -0.000004 -51.234100 31.472300 -18.109700 -24.328900 0.000322 -0.000009 3.750980 5.768730 -33.122400 -22.291500 -0.000108 -0.000004 -1.084210 5.535540 -8.041150 -2.192480 -6.469440 -0.000000 -167.051000 -4.503720 -11.937700 39.081100 -0.000007 -0.000012 0.409013 -0.117429 73.980400 40.985400 -0.000006 -0.000013 11.395200 -7.912100 -55.823600 11.754300 -0.000000 0.000003 -0.008688 -0.093572 -20.387800 -2.192510 6.469440 -0.000001 173.626000 21.214900 164.261000 -39.081100 -0.002282 -0.040193 0.074988 -0.076394 43.191800 -40.985400 0.000008 0.000006 -3.278820 -1.361530 -66.477000 -11.754300 -0.000006 -0.000006 -0.007627 -0.084957 -20.032300
0.000000 0.000000 0.000000 0.000000 0.000000 -0.000000 125.260000 88.251300 169.281000 -86.355000 29.469700 -174.081000 15.735700 0.000005 -0.000001 91.302800 80.689900 -89.563100 8.984550 -0.406207 -0.000000 10.844800 0.466956 3.433090 16.377300 -0.000001 -0.000001 11.065200 6.930310 -1.780910 6.456720 -0.000001 -0.000000 5.171010 11.708700 -5.084040 12.994200 -0.242716 4.980390 -88.352700 -3.770830 -66.380800 5.348090 -0.000007 -0.000001 -66.298300 31.690900 -6.618190 24.328600 0.000019 0.000005 7.999960 10.872200 -36.689700 22.291600 -0.000001 0.000005 1.772200 5.605310 -11.664700 12.994500 -0.242716 -4.980390 89.103800 2.224070 -68.046100 -5.348130 -0.000001 -0.000004 -49.011300 30.348100 -21.951400 -24.328900 0.000322 -0.000009 3.607960 5.316940 -34.241700 -22.291500 -0.000108 -0.000004 -0.854486 5.534750 -8.005620 -2.192480 -6.469440 -0.000000 -168.673000 -8.111760 -16.197700 39.081100 -0.000007 -0.000012 0.436485 -0.133344 73.011900 40.985400 -0.000006 -0.000013 8.400700 -3.226340 -56.265900 11.754300 -0.000000 0.000003 -0.007710 -0.085658 -20.064600 -2.192510 6.469440 -0.000001 172.487000 22.772000 167.786000 -39.081100 -0.002282 -0.040193 0.110834 -0.128113 40.014900 -40.985400 0.000008 0.000006 -2.939900 -1.463330 -66.756800 -11.754300 -0.000006 -0.000006 -0.007380 -0.082893 -19.948000
0.000000 0.000000 0.000000 0.000000 0.000000 -0.000000 126.856000 89.181000 167.714000 -87.137000 27.789100 -173.809000 15.735700 0.000005 -0.000001 95.527400 80.653300 -93.941600 8.984550 -0.406207 -0.000000 10.820900 1.829730 2.996870 16.377300 -0.000001 -0.000001 11.068800 6.231360 -1.402080 6.456720 -0.000001 -0.000000 5.341130 9.421820 -5.307170 12.994200 -0.242716 4.980390 -88.262900 -3.846840 -65.674400 5.348090 -0.000007 -0.000001 -67.622700 30.155300 -3.246260 24.328600 0.000019 0.000005 7.072180 9.612940 -36.609700 22.291600 -0.000001 0.000005 1.378260 5.603110 -11.529700 12.994500 -0.242716 -4.980390 89.320000 1.757120 -68.841100 -5.348130 -0.000001 -0.000004 -46.552800 28.983200 -25.265500 -24.328900 0.000322 -0.000009 3.404820 4.711410 -35.926900 -22.291500 -0.000108 -0.000004 -0.414816 5.534210 -7.981340 -2.192480 -6.469440 -0.000000 -170.222000 -11.228500 -19.161000 39.081100 -0.000007 -0.000012 0.399905 -0.152316 69.148800 40.985400 -0.000006 -0.000013 5.284690 4.423310 -57.612800 11.754300 -0.000000 0.000003 -0.007538 -0.084226 -20.006100 -2.192510 6.469440 -0.000001 171.259000 24.928600 171.626000 -39.081100 -0.002282 -0.040193 0.119023 -0.155935 36.583000 -40.985400 0.000008 0.000006 -2.738400 -0.934054 -66.808900 -11.754300 -0.000006 -0.000006 -0.007123 -0.080718 -19.859200
0.000000 0.000000 0.000000 0.000000 0.000000 -0.000000 128.418000 89.886000 166.107000 -87.848500 26.248500 -173.554000 15.735700 0.000005 -0.000001 99.481200 80.546600 -98.098400 8.984550 -0.406207 -0.000000 10.857700 3.128850 2.467070 16.377300 -0.000001 -0.000001 10.963300 5.521960 -1.158790 6.456720 -0.000001 -0.000000 5.469190 7.237530 -5.393330 12.994200 -0.242716 4.980390 -88.154900 -3.956840 -64.975400 5.348090 -0.000007 -0.000001 -68.248000 28.738500 -0.372428 24.328600 0.000019 0.000005 6.202710 8.402790 -36.639200 22.291600 -0.000001 0.000005 1.271600 5.599130 -11.290200 12.994500 -0.242716 -4.980390 89.421900 1.538290 -69.401800 -5.348130 -0.000001 -0.000004 -43.838200 27.232900 -28.395700 -24.328900 0.000322 -0.000009 3.095390 4.015240 -37.689200 -22.291500 -0.000108 -0.000004 -0.413950 5.534140 -7.978490 -2.192480 -6.469440 -0.000000 -171.924000 -14.540600 -21.244800 39.081100 -0.000007 -0.000012 0.317847 -0.162387 62.937100 40.985400 -0.000006 -0.000013 1.645280 7.664220 -58.442700 11.754300 -0.000000 0.000003 -0.005982 -0.070681 -19.453400 -2.192510 6.469440 -0.000001 170.017000 26.504900 175.380000 -39.081100 -0.002282 -0.040193 0.105805 -0.155603 33.376800 -40.985400 0.000008 0.000006 -2.998160 -0.755003 -67.009300 -11.754300 -0.000006 -0.000006 -0.006790 -0.077853 -19.742200
